# xmcd
#
# Track frame offsets:
#	150
#	900
#	18552
#	34535
#	48600
#	62762
#	79422
#	96582
#	110987
#	127898
#	144248
#	163343
#	182060
#	198545
#	216203
#	231267
#	243402
#	258062
#	270002
#	270752
#	291392
#
# Disc length: 4131 seconds
#
# Revision: 0
# Processed by: cddbd v1.5.2PL0 Copyright (c) Steve Scherf et al.
# Submitted via: EasyCDDAExtractor 7.1.2.1
#
DISCID=2a102115
DTITLE=Various Artist - TM Century - HitDisc 183C
DYEAR=1997
DGENRE=Pop
TTITLE0=blank - blank
TTITLE1=LeAnn Rimes - Unchained Melody
TTITLE2=Mary Chapin Carpenter - I Want To Be Your Girlfriend
TTITLE3=Martina McBride - Cry On The Shoulder Of The Road [Remix]
TTITLE4=Alan Jackson - Everything I Love
TTITLE5=Reba McEntire - How Was I To Know
TTITLE6=Trace Adkins - (This Ain't) No Thinkin' Thing [Edit Version]
TTITLE7=Terri Clark - Emotional Girl
TTITLE8=Kathy Mattea - 455 Rocket [Radio Edit]
TTITLE9=Rick Trevino - I Only Get This Way With You
TTITLE10=Stephanie Bentley - The Hopechest Song
TTITLE11=David Lee Murphy - Genuine Rednecks [Edit]
TTITLE12=Ricochet - Ease My Troubled Mind
TTITLE13=David Kersh - Another You
TTITLE14=Mary Chapin Carpenter - The Better To Dream Of You
TTITLE15=Gary Allan - Forever And A Day
TTITLE16=Jim Auston - Man In The Mirror
TTITLE17=Bill Engvall with special guest Travis Tritt - Here's Your Sign [Radi
TTITLE17=o Version]
TTITLE18=blank - blank
TTITLE19=Artist Formerly Known As Prince - Somebody's Somebody [Radio Edit]
TTITLE20=Phil Collins - The Same Moon
EXTD=
EXTT0=
EXTT1=
EXTT2=
EXTT3=
EXTT4=
EXTT5=
EXTT6=
EXTT7=
EXTT8=
EXTT9=
EXTT10=
EXTT11=
EXTT12=
EXTT13=
EXTT14=
EXTT15=
EXTT16=
EXTT17=
EXTT18=
EXTT19=
EXTT20=
PLAYORDER=
